<svg width="32" height="32" viewBox="0 0 32 32" fill="none" xmlns="http://www.w3.org/2000/svg">
<path fill-rule="evenodd" clip-rule="evenodd" d="M10.139 24.9922C9.20164 24.9922 8.44031 25.7535 8.44031 26.6909C8.44031 27.6282 9.20164 28.3909 10.139 28.3909C11.075 28.3909 11.8363 27.6282 11.8363 26.6909C11.8363 25.7535 11.075 24.9922 10.139 24.9922Z" fill="black"/>
<path fill-rule="evenodd" clip-rule="evenodd" d="M24.6286 24.9922C23.6912 24.9922 22.9299 25.7535 22.9299 26.6909C22.9299 27.6282 23.6912 28.3909 24.6286 28.3909C25.5659 28.3909 26.3272 27.6282 26.3272 26.6909C26.3272 25.7535 25.5659 24.9922 24.6286 24.9922Z" fill="black"/>
<path fill-rule="evenodd" clip-rule="evenodd" d="M18.1 14.9025H23.66V12.9025H18.1V14.9025ZM8.19338 7.68913L7.79338 3.60913H2.59338V5.60913H5.98005L7.68672 22.5425H27.4467L29.4067 7.68913H8.19338Z" fill="black"/>
</svg>
