<svg xmlns="http://www.w3.org/2000/svg" viewBox="0 0 48 48" id="delivery-van">
  <g>
    <path fill="#0075f6" d="M31 17h7.82l2.27 5H31v-5z"></path>
    <path fill="#0075f6" d="M45 29a1 1 0 0 1 0-2h2a2 2 0 0 0-1.23-1.5L42 24H30a1 1 0 0 1-1-1v-7a1 1 0 0 1 1-1h7.91c-.42-.91-.77-2-2.2-2H3a2 2 0 0 0-2 2v12h2a1 1 0 0 1 0 2H1v4a2 2 0 0 0 2 2h1a6 6 0 0 1 12 0h13a6 6 0 0 1 12 0h4a2 2 0 0 0 2-2v-4Zm-29.3-6.29C13.56 24.86 13.55 25 13 25a1 1 0 0 1-.71-1.71l.3-.29H8a1 1 0 0 1 0-2h4.59l-.3-.29a1 1 0 0 1 1.42-1.42l2 2a1 1 0 0 1-.01 1.42Z"></path>
    <circle cx="35" cy="35" r="4" fill="#3f3f44"></circle>
    <circle cx="10" cy="35" r="4" fill="#3f3f44"></circle>
    <path fill="#3f3f44" d="M22 11H10a1 1 0 0 1 0-2h12a1 1 0 0 1 0 2zM6 11H4a1 1 0 0 1 0-2h2a1 1 0 0 1 0 2z"></path>
  </g>
</svg>
