<svg xmlns="http://www.w3.org/2000/svg" width="48" height="48" id="certificate">
  <g transform="translate(0 -1004.362)">
    <circle cx="24" cy="1028.362" r="24" fill="#239fdb" fill-rule="evenodd"></circle>
    <path fill="#0b5ecd" d="M12.45 12a.5.5 0 0 0-.065.012A2.5 2.5 0 0 0 10 14.5V16l4 4v16l11.914 11.914a24 24 0 0 0 21.842-20.69l-14.49-14.49A2.492 2.492 0 0 0 31.5 12h-19a.5.5 0 0 0-.05 0z" color="#000" font-family="sans-serif" font-weight="400" style="line-height:normal;text-indent:0;text-align:start;text-decoration-line:none;text-decoration-style:solid;text-decoration-color:#000;text-transform:none;block-progression:tb;isolation:auto;mix-blend-mode:normal" transform="translate(0 1004.362)"></path>
    <path fill="#fff" d="M12.449 1016.363a.5.5 0 0 0-.065.012 2.5 2.5 0 0 0-2.384 2.488v1.5h4v20h12v1.5a.5.5 0 0 0 .777.416l1.223-.815 1.222.815a.5.5 0 0 0 .778-.416v-1.5h4v-21.467a.5.5 0 0 0 0-.033c0-1.377-1.124-2.5-2.5-2.5h-19a.5.5 0 0 0-.051 0zm.05 1c.84 0 1.5.66 1.5 1.5v.5h-3v-.5c0-.84.661-1.5 1.5-1.5zm1.987 0H31.5c.84 0 1.5.66 1.5 1.5v20.5h-3v-1.784c.609-.55 1-1.336 1-2.216 0-1.651-1.35-3-3-3-1.651 0-3 1.349-3 3 0 .88.39 1.666 1 2.216v1.784H15v-20.5c0-.565-.196-1.081-.514-1.5zm5.514 2v1h8v-1h-8zm-3 3v1h14v-1H17zm0 2v1h14v-1H17zm0 2v1h14v-1H17zm0 2v1h14v-1H17zm0 2v1h14v-1H17zm0 2v1h7v-1h-7zm11 1c1.11 0 2 .89 2 2 0 1.11-.89 2-2 2-1.11 0-2-.89-2-2 0-1.11.89-2 2-2zm-1 4.814c.314.112.648.186 1 .186.351 0 .686-.073 1-.186v2.752l-.723-.482a.5.5 0 0 0-.555 0l-.722.482v-2.752z" color="#000" font-family="sans-serif" font-weight="400" overflow="visible" style="line-height:normal;text-indent:0;text-align:start;text-decoration-line:none;text-decoration-style:solid;text-decoration-color:#000;text-transform:none;block-progression:tb;isolation:auto;mix-blend-mode:normal"></path>
  </g>
</svg>
