<svg xmlns="http://www.w3.org/2000/svg" viewBox="0 0 64 64" id="plant">
  <defs>
    <linearGradient id="a" x1="-21.095" x2="81.883" y1="-19.503" y2="83.475" gradientUnits="userSpaceOnUse">
      <stop offset="0" stop-color="#9cecfb"></stop>
      <stop offset=".512" stop-color="#65c7f7"></stop>
      <stop offset="1" stop-color="#0052d4"></stop>
    </linearGradient>
  </defs>
  <path fill="url(#a)" d="M47.0978,33.7844a11.7412,11.7412,0,0,0,3.7861-10.288,1,1,0,0,0-1.3145-.7471c-1.4917.5283-2.9057.9365-4.2734,1.331-6.1258,1.7668-10.97,3.1835-10.37,12.8489a28.7442,28.7442,0,0,0-1.7457,3.3579c.0772-3.0394.1844-6.0993.331-8.2087a18.22,18.22,0,0,1,2.3868-7.2573,18.1076,18.1076,0,0,0,8.61-5.6187A10.5836,10.5836,0,0,0,46.64,9.554a1.0005,1.0005,0,0,0-1.4135-.5586c-.82.4345-1.63.8359-2.417,1.2256-5.226,2.5894-10.1526,5.05-8.6444,13.5749a24.1983,24.1983,0,0,0-1.9723,4.6356c-.1342-.8946-.2884-1.7243-.4658-2.4527a28.3012,28.3012,0,0,0-2.9443-7.1319c1.4279-8.0645-2.8985-10.2955-7.9107-12.8564-.5489-.28-1.1138-.5693-1.6885-.874a1.001,1.001,0,0,0-1.3731.458c-.1059.2256-2.56,5.5742.9571,9.9736,2.2495,2.8145,5.6343,3.6738,8.1059,4.3018l.1968.05a26.1423,26.1423,0,0,1,2.7134,6.5512,74.3622,74.3622,0,0,1,1.22,12.8715c-.3014-.6873-.6178-1.346-.9571-1.9522.26-10.1779-5.4936-11.9483-12.1564-13.9779-1.1324-.3447-2.3033-.7011-3.4927-1.1113a1.0005,1.0005,0,0,0-1.3155.7988A13.98,13.98,0,0,0,17.39,34.77c3.35,3.0679,7.43,3.72,11.0673,3.8768a21.9452,21.9452,0,0,1,2.54,10.4708,6.8685,6.8685,0,0,0-3.19,1.2842,6.2345,6.2345,0,0,0-6.0551,2.6358,4.3267,4.3267,0,0,0-3.7515,4.2832V58a1,1,0,0,0,1,1h26a1,1,0,0,0,1-1v-.68a4.3273,4.3273,0,0,0-3.751-4.2832,6.2253,6.2253,0,0,0-6.0556-2.6358,6.8508,6.8508,0,0,0-3.1276-1.28,24.5961,24.5961,0,0,1,3.5-10.9925C39.2745,37.7353,43.7933,36.9359,47.0978,33.7844Zm-3.4-21.7714q.6321-.3122,1.2812-.6387a8.8969,8.8969,0,0,1-2.0322,6.58,14.8719,14.8719,0,0,1-5.3089,4.0482,36.3989,36.3989,0,0,1,3.5262-4.3744,1,1,0,0,0-1.42-1.4082A37.1919,37.1919,0,0,0,35.88,21.0069C35.8034,15.9425,39.07,14.3053,43.6974,12.013ZM20.33,14.3a7.5247,7.5247,0,0,1-1.0669-6.8868q.3529.1817.6987.3584c4.3214,2.2074,7.1763,3.6816,7.106,8.3186a38.7744,38.7744,0,0,0-3.1475-4.0666,1,1,0,0,0-1.4731,1.3525,38.1781,38.1781,0,0,1,3.0908,4.0379A10.06,10.06,0,0,1,20.33,14.3ZM45.8507,26.0022c1.0176-.2939,2.06-.5947,3.1514-.9492a10.1128,10.1128,0,0,1-3.2852,7.2842,15.1519,15.1519,0,0,1-7.6383,3.5083,25.4491,25.4491,0,0,1,3.505-3.9585,1,1,0,0,0-1.292-1.5264,26.1584,26.1584,0,0,0-3.3758,3.6669C37.3276,28.4787,40.5642,27.5266,45.8507,26.0022Zm-27.11,7.293a11.9513,11.9513,0,0,1-3.7343-8.7031c.7827.2519,1.55.4853,2.3007.7148,5.71,1.7382,9.754,2.9848,10.5907,8.9089a19.3937,19.3937,0,0,0-4.703-4.2722,1,1,0,0,0-1.01,1.7256,18.09,18.09,0,0,1,4.9816,4.89A13.5472,13.5472,0,0,1,18.74,33.2952ZM36.1441,52.4446a4.2481,4.2481,0,0,1,4.6714,2.0586A1.0005,1.0005,0,0,0,41.68,55a2.324,2.324,0,0,1,2.2988,2H20.0226a2.3247,2.3247,0,0,1,2.3-2,1,1,0,0,0,.8642-.4971,4.2466,4.2466,0,0,1,4.67-2.0586.9923.9923,0,0,0,.8741-.22,5.105,5.105,0,0,1,6.539-.001A.9908.9908,0,0,0,36.1441,52.4446Z"></path>
</svg>
